<svg width="63" height="63" viewBox="0 0 63 63" fill="none" xmlns="http://www.w3.org/2000/svg">
<circle cx="31.5" cy="31.5" r="31.5" fill="white"/>
<path d="M35.4602 38.1531C33.6367 38.0353 32.0934 37.5611 30.8305 36.7304C29.5755 35.8927 28.6372 34.7803 28.0155 33.3932C27.4019 31.9992 27.1525 30.4129 27.2674 28.6346C27.3827 26.8487 27.8341 25.3078 28.6215 24.0118C29.417 22.7087 30.4906 21.7263 31.8424 21.0645C33.2022 20.3956 34.7939 20.1201 36.6175 20.2379C38.441 20.3557 39.9802 20.8335 41.2352 21.6712C42.4981 22.5019 43.4365 23.6143 44.0501 25.0084C44.6718 26.3954 44.925 27.9819 44.8096 29.7677C44.6947 31.5461 44.2396 33.0868 43.4441 34.3898C42.6567 35.6859 41.5831 36.6683 40.2233 37.3371C38.8715 37.9989 37.2838 38.2709 35.4602 38.1531ZM35.7636 33.9845C36.4267 34.0274 37.0012 33.8602 37.4871 33.4829C37.9731 33.1057 38.36 32.5632 38.6478 31.8554C38.9432 31.1481 39.1216 30.3197 39.1829 29.3702C39.2452 28.4057 39.1754 27.5537 38.9734 26.8143C38.779 26.0753 38.4652 25.4875 38.0318 25.0509C37.5984 24.6143 37.0502 24.3746 36.3871 24.3318C35.7014 24.2875 35.108 24.4535 34.607 24.8297C34.1135 25.2064 33.7191 25.7485 33.4237 26.4558C33.1358 27.1636 32.9607 27.9998 32.8984 28.9643C32.8371 29.9137 32.9037 30.758 33.0981 31.4969C33.3 32.2364 33.6214 32.8246 34.0623 33.2617C34.5108 33.6993 35.0778 33.9402 35.7636 33.9845Z" fill="#9AE600"/>
<path d="M47.385 21.9972L46.71 17.6364C48.1773 16.9909 50.6575 16.4736 53.3459 16.814C58.9564 17.5245 60.8308 21.1662 60.3967 24.5949C59.9872 27.8287 57.748 29.8807 55.7624 31.8065C53.2791 34.2236 53.1015 35.6262 52.766 38.2756L47.7789 37.6441C47.8588 36.3874 47.8396 36.2267 47.884 35.876C48.1603 33.6941 49.2498 31.6549 51.2942 29.5781C53.0214 27.8175 54.2268 26.4263 54.4389 24.7509C54.6659 22.9587 53.6889 21.6078 51.4681 21.3266C50.1434 21.1589 48.5307 21.3901 47.385 21.9972ZM48.9611 47.6904C46.8182 47.419 45.7348 45.6588 45.9815 43.7107C46.2528 41.5678 47.9208 40.2747 49.8689 40.5214C51.8949 40.778 53.11 42.4361 52.8387 44.579C52.5822 46.605 51.0651 47.9568 48.9611 47.6904Z" fill="#9AE600"/>
<path d="M17.3685 45.9374L8.44096 48.2316L2.3148 22.7036L11.2306 20.4125C13.6915 19.7801 15.933 19.7467 17.9551 20.3122C19.9831 20.8674 21.71 21.9763 23.1357 23.6391C24.5594 25.2936 25.5894 27.4462 26.2255 30.0971C26.8637 32.7562 26.9285 35.1657 26.4202 37.3255C25.9196 39.4832 24.8996 41.3025 23.3602 42.7832C21.8188 44.2557 19.8215 45.3071 17.3685 45.9374ZM13.0163 41.4713L15.8821 40.7349C17.2344 40.3873 18.3206 39.8524 19.1405 39.13C19.9663 38.3973 20.4874 37.4208 20.7038 36.2007C20.926 34.9702 20.8167 33.4367 20.376 31.6002C19.9353 29.7637 19.3406 28.3638 18.5919 27.4005C17.8412 26.4289 16.9324 25.8243 15.8654 25.5868C14.8043 25.339 13.5818 25.3928 12.1981 25.7484L9.41483 26.4636L13.0163 41.4713Z" fill="#9AE600"/>
</svg>
