<svg width="52" height="51" viewBox="0 0 52 51" fill="none" xmlns="http://www.w3.org/2000/svg">
<path d="M31.2029 30.4104C29.743 30.6324 28.4427 30.5246 27.3022 30.087C26.1669 29.6424 25.234 28.9263 24.5036 27.9387C23.7784 26.9441 23.3076 25.735 23.0911 24.3113C22.8737 22.8815 22.9639 21.5871 23.3617 20.428C23.7645 19.2619 24.4424 18.3009 25.3952 17.545C26.3532 16.7821 27.5622 16.2897 29.0221 16.0677C30.482 15.8457 31.7796 15.957 32.915 16.4016C34.0555 16.8392 34.9884 17.5553 35.7136 18.5499C36.444 19.5375 36.9178 20.7461 37.1352 22.1759C37.3517 23.5996 37.2585 24.8945 36.8556 26.0606C36.4578 27.2197 35.78 28.1807 34.822 28.9436C33.8692 29.6995 32.6628 30.1885 31.2029 30.4104ZM30.7223 27.0672C31.2532 26.9865 31.6779 26.7553 31.9963 26.3736C32.3148 25.9918 32.5265 25.4967 32.6315 24.8882C32.7425 24.2788 32.7402 23.5941 32.6247 22.8339C32.5073 22.0618 32.305 21.4012 32.0178 20.8524C31.7367 20.3026 31.3874 19.8928 30.9699 19.623C30.5524 19.3532 30.0782 19.2586 29.5473 19.3393C28.9983 19.4228 28.5586 19.6563 28.228 20.0399C27.9035 20.4225 27.6858 20.9185 27.5748 21.5279C27.4698 22.1364 27.476 22.8268 27.5934 23.5989C27.709 24.3591 27.9073 25.014 28.1884 25.5638C28.4755 26.1127 28.8309 26.5216 29.2545 26.7905C29.684 27.0584 30.1733 27.1507 30.7223 27.0672Z" fill="#9AE600"/>
<path d="M37.385 13.9972L36.71 9.63639C38.1773 8.99087 40.6575 8.47362 43.3459 8.81403C48.9564 9.52446 50.8308 13.1662 50.3967 16.5949C49.9872 19.8287 47.748 21.8807 45.7624 23.8065C43.2791 26.2236 43.1015 27.6262 42.766 30.2756L37.7789 29.6441C37.8588 28.3874 37.8396 28.2267 37.884 27.876C38.1603 25.6941 39.2498 23.6549 41.2942 21.5781C43.0214 19.8175 44.2268 18.4263 44.4389 16.7509C44.6659 14.9587 43.6889 13.6078 41.4681 13.3266C40.1434 13.1589 38.5307 13.3901 37.385 13.9972ZM38.9611 39.6904C36.8182 39.419 35.7348 37.6588 35.9815 35.7107C36.2528 33.5678 37.9208 32.2747 39.8689 32.5214C41.8949 32.778 43.11 34.4361 42.8387 36.579C42.5822 38.605 41.0651 39.9568 38.9611 39.6904Z" fill="#9AE600"/>
<path d="M13.845 41.9348L4.74383 43.3952L1 17.4107L10.0892 15.9523C12.5979 15.5497 14.833 15.7233 16.7943 16.4731C18.7624 17.2131 20.3795 18.4767 21.6457 20.2639C22.9106 22.0427 23.7375 24.2813 24.1263 26.9795C24.5162 29.6862 24.3585 32.0914 23.6529 34.195C22.9553 36.2974 21.7718 38.0147 20.1023 39.3471C18.4315 40.671 16.3458 41.5335 13.845 41.9348ZM9.92364 37.086L12.8452 36.6172C14.2238 36.396 15.3546 35.9636 16.2378 35.32C17.1277 34.6666 17.7367 33.7424 18.0647 32.5474C18.3996 31.3427 18.4323 29.8057 18.163 27.9364C17.8937 26.0671 17.4307 24.6182 16.7741 23.5899C16.1163 22.5531 15.2671 21.8673 14.2266 21.5323C13.1929 21.1876 11.9707 21.1284 10.56 21.3547L7.72268 21.81L9.92364 37.086Z" fill="#9AE600"/>
</svg>
