<svg width="284" height="246" viewBox="0 0 284 246" fill="none" xmlns="http://www.w3.org/2000/svg">
<rect width="284" height="246" fill="#D9D9D9"/>
<circle cx="135.5" cy="118.5" r="31.5" fill="white"/>
<path d="M139.46 125.153C137.637 125.035 136.093 124.561 134.83 123.73C133.576 122.893 132.637 121.78 132.016 120.393C131.402 118.999 131.152 117.413 131.267 115.635C131.383 113.849 131.834 112.308 132.622 111.012C133.417 109.709 134.491 108.726 135.842 108.064C137.202 107.396 138.794 107.12 140.617 107.238C142.441 107.356 143.98 107.833 145.235 108.671C146.498 109.502 147.436 110.614 148.05 112.008C148.672 113.395 148.925 114.982 148.81 116.768C148.695 118.546 148.24 120.087 147.444 121.39C146.657 122.686 145.583 123.668 144.223 124.337C142.871 124.999 141.284 125.271 139.46 125.153ZM139.764 120.985C140.427 121.027 141.001 120.86 141.487 120.483C141.973 120.106 142.36 119.563 142.648 118.855C142.943 118.148 143.122 117.32 143.183 116.37C143.245 115.406 143.175 114.554 142.973 113.814C142.779 113.075 142.465 112.488 142.032 112.051C141.598 111.614 141.05 111.375 140.387 111.332C139.701 111.287 139.108 111.453 138.607 111.83C138.114 112.206 137.719 112.748 137.424 113.456C137.136 114.164 136.961 115 136.898 115.964C136.837 116.914 136.904 117.758 137.098 118.497C137.3 119.236 137.621 119.825 138.062 120.262C138.511 120.699 139.078 120.94 139.764 120.985Z" fill="#9AE600"/>
<path d="M151.385 108.997L150.71 104.636C152.177 103.991 154.658 103.474 157.346 103.814C162.956 104.524 164.831 108.166 164.397 111.595C163.987 114.829 161.748 116.881 159.762 118.807C157.279 121.224 157.101 122.626 156.766 125.276L151.779 124.644C151.859 123.387 151.84 123.227 151.884 122.876C152.16 120.694 153.25 118.655 155.294 116.578C157.021 114.818 158.227 113.426 158.439 111.751C158.666 109.959 157.689 108.608 155.468 108.327C154.143 108.159 152.531 108.39 151.385 108.997ZM152.961 134.69C150.818 134.419 149.735 132.659 149.981 130.711C150.253 128.568 151.921 127.275 153.869 127.521C155.895 127.778 157.11 129.436 156.839 131.579C156.582 133.605 155.065 134.957 152.961 134.69Z" fill="#9AE600"/>
<path d="M121.369 132.937L112.441 135.232L106.315 109.704L115.231 107.413C117.691 106.78 119.933 106.747 121.955 107.312C123.983 107.867 125.71 108.976 127.136 110.639C128.559 112.294 129.589 114.446 130.226 117.097C130.864 119.756 130.929 122.166 130.42 124.325C129.92 126.483 128.9 128.302 127.36 129.783C125.819 131.256 123.822 132.307 121.369 132.937ZM117.016 128.471L119.882 127.735C121.234 127.387 122.321 126.852 123.14 126.13C123.966 125.397 124.487 124.421 124.704 123.201C124.926 121.97 124.817 120.437 124.376 118.6C123.935 116.764 123.341 115.364 122.592 114.401C121.841 113.429 120.932 112.824 119.865 112.587C118.804 112.339 117.582 112.393 116.198 112.748L113.415 113.464L117.016 128.471Z" fill="#9AE600"/>
</svg>
